<?xml version="1.0" encoding="utf-8"?>
<!-- Generator: Adobe Illustrator 22.0.0, SVG Export Plug-In . SVG Version: 6.00 Build 0)  -->
<svg version="1.1" id="Layer_1" xmlns="http://www.w3.org/2000/svg" xmlns:xlink="http://www.w3.org/1999/xlink" x="0px" y="0px"
	 viewBox="0 0 841.9 175.3" style="enable-background:new 0 0 841.9 175.3;" xml:space="preserve">
<style type="text/css">
	.st0{fill:#231F20;}
</style>
<path class="st0" d="M75.8,46.6c33.7,0,61,26.6,61,61c0,35.1-27.3,62.4-61,62.4c-33.7,0-61-27.3-61-62.4
	C14.8,73.2,42.1,46.6,75.8,46.6z M75.8,160.3c28,0,50.6-22.8,50.6-52.7c0-29.2-22.6-51.3-50.6-51.3c-28,0-50.6,22.1-50.6,51.3
	C25.2,137.5,47.8,160.3,75.8,160.3z"/>
<g>
	<polygon class="st0" points="221.9,46.6 180.3,152.5 138.8,46.6 128.1,46.6 176.7,170 183.9,170 232.1,46.6 	"/>
</g>
<polygon class="st0" points="803.9,46.6 785.4,46.6 745,98 732.8,98 732.8,4.5 716.7,4.5 716.7,170 732.8,170 732.8,111.1 
	744.9,111.1 791.3,170 809.8,170 758.3,104.6 "/>
<g>
	<path class="st0" d="M645.4,46.8c-6.8,0-12.9,1.1-18.4,2.7v14.9c5.1-1.9,11.1-3.3,17.9-3.3c24.3,0,44.9,16.4,45.6,46.5h-90.7
		c0,0,0,5.4,0,8.2c0,29.2,16.6,54.2,49.1,54.2c31.8,0,58-23.1,58-61.7C706.9,72,680.5,46.8,645.4,46.8z M649.4,156.6
		c-17.5,0-32.5-11.5-33.4-36h73.9C686.1,144.3,669,156.6,649.4,156.6z"/>
</g>
<g>
	<path class="st0" d="M413.3,79.3c0-13.1,11.5-18.2,23.4-18.2c13.6,0,22.6,5.3,26.8,8.5l9.9-9.9c-0.3-0.4-11.8-12.8-36.2-12.8
		c-21.3,0-40.2,11.5-40.2,32.5c0,38.3,63.3,32,63.3,57.7c0,12.4-11,18.7-23.6,18.7c-16.6,0-28.1-8.1-32.8-12.1l-10.1,10.1
		c3.4,3.4,17.9,16.2,42.7,16.2c23.6,0,40.2-13.8,40.2-33C476.7,98.2,413.3,105.2,413.3,79.3z"/>
</g>
<g>
	<path class="st0" d="M303.9,156.7c-5.3,2.1-11.6,3.6-18.8,3.6c-27.3,0-50.4-19.5-50.4-53.7h94.9c0,0,0-3.8,0-6.4
		c0-28.5-16-53.7-48-53.7c-30.1,0-57.2,22.1-57.2,61.9c0,37.4,27.5,61.4,60.7,61.4c7,0,13.3-1.3,18.8-3.1V156.7z M281.3,55.8
		c19.5,0,36.7,12.9,37.9,41.7h-83.8C239.6,69.9,259.6,55.8,281.3,55.8z"/>
</g>
<g>
	<path class="st0" d="M544.8,61c6.8,0,12.8,1.4,17.9,3.3V49.5c-5.4-1.6-11.6-2.7-18.4-2.7c-35.1,0-61.5,25.2-61.5,61.5
		c0,38.6,26.2,61.7,58,61.7c32.5,0,49.1-25,49.1-54.2c0-2.8,0-8.2,0-8.2h-90.7C499.9,77.4,520.5,61,544.8,61z M573.8,120.6
		c-0.9,24.5-15.9,36-33.4,36c-19.6,0-36.7-12.4-40.4-36H573.8z"/>
</g>
<path class="st0" d="M387.6,46.6c-17.1,0-33.6,14.2-38.5,34.9V46.3l-9.7,0.3V170h9.9c0,0,0-31,0-48.2c0-10.3,0.6-20.2,2.7-28.3
	c4.2-16,14.3-36.8,37.1-36.8c2.6,0,4.2,0,4.2,0V46.6C393.3,46.6,391.1,46.6,387.6,46.6z"/>
<g>
	<path class="st0" d="M818.4,46.3c5.3,0,9.6,4.3,9.6,9.7c0,5.5-4.2,9.7-9.6,9.7c-5.2,0-9.5-4.3-9.5-9.7
		C809,50.6,813.2,46.3,818.4,46.3z M818.4,64.7c4.7,0,8.4-3.7,8.4-8.6c0-4.8-3.6-8.6-8.4-8.6c-4.6,0-8.2,3.8-8.2,8.6
		C810.2,60.9,813.8,64.7,818.4,64.7z M818.8,50.4c2.8,0,4.4,2.4,4.4,2.4l-0.9,0.8c0,0-1.3-2-3.5-2c-3.1,0-4.6,2.2-4.6,4.5
		c0,2.2,1.5,4.5,4.6,4.5c2.2,0,3.5-2,3.5-2l0.9,0.8c0,0-1.6,2.4-4.4,2.4c-3.8,0-5.8-2.8-5.8-5.6C813,53.3,814.9,50.4,818.8,50.4z"/>
</g>
</svg>
